<mxfile host="app.diagrams.net" modified="2024-05-25T15:49:37.666Z" agent="Mozilla/5.0 (Windows NT 10.0; Win64; x64) AppleWebKit/537.36 (KHTML, like Gecko) Chrome/125.0.0.0 Safari/537.36" etag="QlaSmajngvPAimHSDYbQ" version="24.4.8" type="device">
  <diagram name="Page-1" id="WxW-HBdN5Krgy-BajZ0I">
    <mxGraphModel dx="1444" dy="825" grid="1" gridSize="10" guides="1" tooltips="1" connect="1" arrows="1" fold="1" page="1" pageScale="1" pageWidth="827" pageHeight="1169" math="0" shadow="0">
      <root>
        <mxCell id="0" />
        <mxCell id="1" parent="0" />
        <mxCell id="IJIaXHJ3QycAoCleeHPY-5" value="" style="edgeStyle=orthogonalEdgeStyle;rounded=0;orthogonalLoop=1;jettySize=auto;html=1;" edge="1" parent="1" source="IJIaXHJ3QycAoCleeHPY-1" target="IJIaXHJ3QycAoCleeHPY-4">
          <mxGeometry relative="1" as="geometry" />
        </mxCell>
        <mxCell id="IJIaXHJ3QycAoCleeHPY-1" value="1" style="ellipse;whiteSpace=wrap;html=1;aspect=fixed;" vertex="1" parent="1">
          <mxGeometry x="360" y="60" width="60" height="60" as="geometry" />
        </mxCell>
        <mxCell id="IJIaXHJ3QycAoCleeHPY-2" value="" style="endArrow=none;html=1;rounded=0;" edge="1" parent="1" target="IJIaXHJ3QycAoCleeHPY-3">
          <mxGeometry width="50" height="50" relative="1" as="geometry">
            <mxPoint x="420" y="90" as="sourcePoint" />
            <mxPoint x="560" y="90" as="targetPoint" />
          </mxGeometry>
        </mxCell>
        <mxCell id="IJIaXHJ3QycAoCleeHPY-3" value="2" style="ellipse;whiteSpace=wrap;html=1;aspect=fixed;" vertex="1" parent="1">
          <mxGeometry x="530" y="60" width="60" height="60" as="geometry" />
        </mxCell>
        <mxCell id="IJIaXHJ3QycAoCleeHPY-9" value="" style="edgeStyle=orthogonalEdgeStyle;rounded=0;orthogonalLoop=1;jettySize=auto;html=1;" edge="1" parent="1" source="IJIaXHJ3QycAoCleeHPY-4" target="IJIaXHJ3QycAoCleeHPY-8">
          <mxGeometry relative="1" as="geometry" />
        </mxCell>
        <mxCell id="IJIaXHJ3QycAoCleeHPY-4" value="3.1" style="ellipse;whiteSpace=wrap;html=1;aspect=fixed;" vertex="1" parent="1">
          <mxGeometry x="190" y="130" width="60" height="60" as="geometry" />
        </mxCell>
        <mxCell id="IJIaXHJ3QycAoCleeHPY-11" value="" style="edgeStyle=orthogonalEdgeStyle;rounded=0;orthogonalLoop=1;jettySize=auto;html=1;" edge="1" parent="1" source="IJIaXHJ3QycAoCleeHPY-8" target="IJIaXHJ3QycAoCleeHPY-10">
          <mxGeometry relative="1" as="geometry" />
        </mxCell>
        <mxCell id="IJIaXHJ3QycAoCleeHPY-8" value="3.2" style="ellipse;whiteSpace=wrap;html=1;aspect=fixed;" vertex="1" parent="1">
          <mxGeometry x="190" y="270" width="60" height="60" as="geometry" />
        </mxCell>
        <mxCell id="IJIaXHJ3QycAoCleeHPY-13" value="" style="edgeStyle=orthogonalEdgeStyle;rounded=0;orthogonalLoop=1;jettySize=auto;html=1;" edge="1" parent="1" source="IJIaXHJ3QycAoCleeHPY-10" target="IJIaXHJ3QycAoCleeHPY-12">
          <mxGeometry relative="1" as="geometry" />
        </mxCell>
        <mxCell id="IJIaXHJ3QycAoCleeHPY-15" value="" style="edgeStyle=orthogonalEdgeStyle;rounded=0;orthogonalLoop=1;jettySize=auto;html=1;" edge="1" parent="1" source="IJIaXHJ3QycAoCleeHPY-10" target="IJIaXHJ3QycAoCleeHPY-14">
          <mxGeometry relative="1" as="geometry" />
        </mxCell>
        <mxCell id="IJIaXHJ3QycAoCleeHPY-10" value="4" style="ellipse;whiteSpace=wrap;html=1;" vertex="1" parent="1">
          <mxGeometry x="185" y="400" width="70" height="70" as="geometry" />
        </mxCell>
        <mxCell id="IJIaXHJ3QycAoCleeHPY-12" value="5" style="ellipse;whiteSpace=wrap;html=1;" vertex="1" parent="1">
          <mxGeometry x="340" y="400" width="65" height="70" as="geometry" />
        </mxCell>
        <mxCell id="IJIaXHJ3QycAoCleeHPY-19" value="" style="edgeStyle=orthogonalEdgeStyle;rounded=0;orthogonalLoop=1;jettySize=auto;html=1;" edge="1" parent="1" source="IJIaXHJ3QycAoCleeHPY-14" target="IJIaXHJ3QycAoCleeHPY-18">
          <mxGeometry relative="1" as="geometry" />
        </mxCell>
        <mxCell id="IJIaXHJ3QycAoCleeHPY-14" value="6" style="ellipse;whiteSpace=wrap;html=1;" vertex="1" parent="1">
          <mxGeometry x="185" y="550" width="70" height="70" as="geometry" />
        </mxCell>
        <mxCell id="IJIaXHJ3QycAoCleeHPY-16" style="edgeStyle=orthogonalEdgeStyle;rounded=0;orthogonalLoop=1;jettySize=auto;html=1;entryX=1.014;entryY=0.648;entryDx=0;entryDy=0;entryPerimeter=0;" edge="1" parent="1" source="IJIaXHJ3QycAoCleeHPY-12" target="IJIaXHJ3QycAoCleeHPY-14">
          <mxGeometry relative="1" as="geometry">
            <Array as="points">
              <mxPoint x="380" y="595" />
            </Array>
          </mxGeometry>
        </mxCell>
        <mxCell id="IJIaXHJ3QycAoCleeHPY-21" value="" style="edgeStyle=orthogonalEdgeStyle;rounded=0;orthogonalLoop=1;jettySize=auto;html=1;" edge="1" parent="1" source="IJIaXHJ3QycAoCleeHPY-18" target="IJIaXHJ3QycAoCleeHPY-20">
          <mxGeometry relative="1" as="geometry" />
        </mxCell>
        <mxCell id="IJIaXHJ3QycAoCleeHPY-18" value="7" style="ellipse;whiteSpace=wrap;html=1;" vertex="1" parent="1">
          <mxGeometry x="185" y="700" width="70" height="70" as="geometry" />
        </mxCell>
        <mxCell id="IJIaXHJ3QycAoCleeHPY-23" value="" style="edgeStyle=orthogonalEdgeStyle;rounded=0;orthogonalLoop=1;jettySize=auto;html=1;" edge="1" parent="1" source="IJIaXHJ3QycAoCleeHPY-20" target="IJIaXHJ3QycAoCleeHPY-22">
          <mxGeometry relative="1" as="geometry" />
        </mxCell>
        <mxCell id="IJIaXHJ3QycAoCleeHPY-20" value="8" style="ellipse;whiteSpace=wrap;html=1;" vertex="1" parent="1">
          <mxGeometry x="185" y="850" width="70" height="70" as="geometry" />
        </mxCell>
        <mxCell id="IJIaXHJ3QycAoCleeHPY-25" value="" style="edgeStyle=orthogonalEdgeStyle;rounded=0;orthogonalLoop=1;jettySize=auto;html=1;" edge="1" parent="1" source="IJIaXHJ3QycAoCleeHPY-22" target="IJIaXHJ3QycAoCleeHPY-24">
          <mxGeometry relative="1" as="geometry" />
        </mxCell>
        <mxCell id="IJIaXHJ3QycAoCleeHPY-22" value="9.1" style="ellipse;whiteSpace=wrap;html=1;" vertex="1" parent="1">
          <mxGeometry x="185" y="1000" width="70" height="70" as="geometry" />
        </mxCell>
        <mxCell id="IJIaXHJ3QycAoCleeHPY-27" value="" style="edgeStyle=orthogonalEdgeStyle;rounded=0;orthogonalLoop=1;jettySize=auto;html=1;" edge="1" parent="1" source="IJIaXHJ3QycAoCleeHPY-24" target="IJIaXHJ3QycAoCleeHPY-26">
          <mxGeometry relative="1" as="geometry" />
        </mxCell>
        <mxCell id="IJIaXHJ3QycAoCleeHPY-24" value="9.2" style="ellipse;whiteSpace=wrap;html=1;" vertex="1" parent="1">
          <mxGeometry x="185" y="1150" width="70" height="70" as="geometry" />
        </mxCell>
        <mxCell id="IJIaXHJ3QycAoCleeHPY-29" value="" style="edgeStyle=orthogonalEdgeStyle;rounded=0;orthogonalLoop=1;jettySize=auto;html=1;" edge="1" parent="1" source="IJIaXHJ3QycAoCleeHPY-26" target="IJIaXHJ3QycAoCleeHPY-28">
          <mxGeometry relative="1" as="geometry" />
        </mxCell>
        <mxCell id="IJIaXHJ3QycAoCleeHPY-31" value="" style="edgeStyle=orthogonalEdgeStyle;rounded=0;orthogonalLoop=1;jettySize=auto;html=1;" edge="1" parent="1" source="IJIaXHJ3QycAoCleeHPY-26" target="IJIaXHJ3QycAoCleeHPY-30">
          <mxGeometry relative="1" as="geometry" />
        </mxCell>
        <mxCell id="IJIaXHJ3QycAoCleeHPY-26" value="10" style="ellipse;whiteSpace=wrap;html=1;" vertex="1" parent="1">
          <mxGeometry x="185" y="1300" width="70" height="70" as="geometry" />
        </mxCell>
        <mxCell id="IJIaXHJ3QycAoCleeHPY-54" style="edgeStyle=orthogonalEdgeStyle;rounded=0;orthogonalLoop=1;jettySize=auto;html=1;exitX=1;exitY=1;exitDx=0;exitDy=0;entryX=1;entryY=0;entryDx=0;entryDy=0;" edge="1" parent="1" source="IJIaXHJ3QycAoCleeHPY-28" target="IJIaXHJ3QycAoCleeHPY-51">
          <mxGeometry relative="1" as="geometry" />
        </mxCell>
        <mxCell id="IJIaXHJ3QycAoCleeHPY-28" value="11" style="ellipse;whiteSpace=wrap;html=1;" vertex="1" parent="1">
          <mxGeometry x="510" y="1300" width="70" height="70" as="geometry" />
        </mxCell>
        <mxCell id="IJIaXHJ3QycAoCleeHPY-33" value="" style="edgeStyle=orthogonalEdgeStyle;rounded=0;orthogonalLoop=1;jettySize=auto;html=1;" edge="1" parent="1" source="IJIaXHJ3QycAoCleeHPY-30" target="IJIaXHJ3QycAoCleeHPY-32">
          <mxGeometry relative="1" as="geometry" />
        </mxCell>
        <mxCell id="IJIaXHJ3QycAoCleeHPY-30" value="12" style="ellipse;whiteSpace=wrap;html=1;" vertex="1" parent="1">
          <mxGeometry x="185" y="1450" width="70" height="70" as="geometry" />
        </mxCell>
        <mxCell id="IJIaXHJ3QycAoCleeHPY-35" value="" style="edgeStyle=orthogonalEdgeStyle;rounded=0;orthogonalLoop=1;jettySize=auto;html=1;" edge="1" parent="1" source="IJIaXHJ3QycAoCleeHPY-32" target="IJIaXHJ3QycAoCleeHPY-34">
          <mxGeometry relative="1" as="geometry" />
        </mxCell>
        <mxCell id="IJIaXHJ3QycAoCleeHPY-32" value="13" style="ellipse;whiteSpace=wrap;html=1;" vertex="1" parent="1">
          <mxGeometry x="185" y="1600" width="70" height="70" as="geometry" />
        </mxCell>
        <mxCell id="IJIaXHJ3QycAoCleeHPY-37" value="" style="edgeStyle=orthogonalEdgeStyle;rounded=0;orthogonalLoop=1;jettySize=auto;html=1;" edge="1" parent="1" source="IJIaXHJ3QycAoCleeHPY-34" target="IJIaXHJ3QycAoCleeHPY-36">
          <mxGeometry relative="1" as="geometry" />
        </mxCell>
        <mxCell id="IJIaXHJ3QycAoCleeHPY-39" value="" style="edgeStyle=orthogonalEdgeStyle;rounded=0;orthogonalLoop=1;jettySize=auto;html=1;" edge="1" parent="1" source="IJIaXHJ3QycAoCleeHPY-34" target="IJIaXHJ3QycAoCleeHPY-38">
          <mxGeometry relative="1" as="geometry" />
        </mxCell>
        <mxCell id="IJIaXHJ3QycAoCleeHPY-34" value="14" style="ellipse;whiteSpace=wrap;html=1;" vertex="1" parent="1">
          <mxGeometry x="185" y="1750" width="70" height="70" as="geometry" />
        </mxCell>
        <mxCell id="IJIaXHJ3QycAoCleeHPY-55" style="edgeStyle=orthogonalEdgeStyle;rounded=0;orthogonalLoop=1;jettySize=auto;html=1;exitX=1;exitY=0.5;exitDx=0;exitDy=0;" edge="1" parent="1" source="IJIaXHJ3QycAoCleeHPY-36">
          <mxGeometry relative="1" as="geometry">
            <mxPoint x="770" y="2532.9630533854165" as="targetPoint" />
          </mxGeometry>
        </mxCell>
        <mxCell id="IJIaXHJ3QycAoCleeHPY-36" value="15" style="ellipse;whiteSpace=wrap;html=1;" vertex="1" parent="1">
          <mxGeometry x="510" y="1750" width="70" height="70" as="geometry" />
        </mxCell>
        <mxCell id="IJIaXHJ3QycAoCleeHPY-41" value="" style="edgeStyle=orthogonalEdgeStyle;rounded=0;orthogonalLoop=1;jettySize=auto;html=1;" edge="1" parent="1" source="IJIaXHJ3QycAoCleeHPY-38" target="IJIaXHJ3QycAoCleeHPY-40">
          <mxGeometry relative="1" as="geometry" />
        </mxCell>
        <mxCell id="IJIaXHJ3QycAoCleeHPY-38" value="16" style="ellipse;whiteSpace=wrap;html=1;" vertex="1" parent="1">
          <mxGeometry x="185" y="1900" width="70" height="70" as="geometry" />
        </mxCell>
        <mxCell id="IJIaXHJ3QycAoCleeHPY-43" value="" style="edgeStyle=orthogonalEdgeStyle;rounded=0;orthogonalLoop=1;jettySize=auto;html=1;" edge="1" parent="1" source="IJIaXHJ3QycAoCleeHPY-40" target="IJIaXHJ3QycAoCleeHPY-42">
          <mxGeometry relative="1" as="geometry" />
        </mxCell>
        <mxCell id="IJIaXHJ3QycAoCleeHPY-40" value="17" style="ellipse;whiteSpace=wrap;html=1;" vertex="1" parent="1">
          <mxGeometry x="185" y="2050" width="70" height="70" as="geometry" />
        </mxCell>
        <mxCell id="IJIaXHJ3QycAoCleeHPY-46" value="" style="edgeStyle=orthogonalEdgeStyle;rounded=0;orthogonalLoop=1;jettySize=auto;html=1;" edge="1" parent="1" source="IJIaXHJ3QycAoCleeHPY-42" target="IJIaXHJ3QycAoCleeHPY-45">
          <mxGeometry relative="1" as="geometry" />
        </mxCell>
        <mxCell id="IJIaXHJ3QycAoCleeHPY-42" value="18" style="ellipse;whiteSpace=wrap;html=1;" vertex="1" parent="1">
          <mxGeometry x="185" y="2200" width="70" height="70" as="geometry" />
        </mxCell>
        <mxCell id="IJIaXHJ3QycAoCleeHPY-44" value="" style="endArrow=none;html=1;rounded=0;exitX=1;exitY=0.5;exitDx=0;exitDy=0;entryX=1;entryY=0.5;entryDx=0;entryDy=0;" edge="1" parent="1" source="IJIaXHJ3QycAoCleeHPY-38" target="IJIaXHJ3QycAoCleeHPY-42">
          <mxGeometry width="50" height="50" relative="1" as="geometry">
            <mxPoint x="410" y="1890" as="sourcePoint" />
            <mxPoint x="460" y="1840" as="targetPoint" />
            <Array as="points">
              <mxPoint x="380" y="2060" />
            </Array>
          </mxGeometry>
        </mxCell>
        <mxCell id="IJIaXHJ3QycAoCleeHPY-48" value="" style="edgeStyle=orthogonalEdgeStyle;rounded=0;orthogonalLoop=1;jettySize=auto;html=1;" edge="1" parent="1" source="IJIaXHJ3QycAoCleeHPY-45" target="IJIaXHJ3QycAoCleeHPY-47">
          <mxGeometry relative="1" as="geometry" />
        </mxCell>
        <mxCell id="IJIaXHJ3QycAoCleeHPY-50" value="" style="edgeStyle=orthogonalEdgeStyle;rounded=0;orthogonalLoop=1;jettySize=auto;html=1;" edge="1" parent="1" source="IJIaXHJ3QycAoCleeHPY-45" target="IJIaXHJ3QycAoCleeHPY-49">
          <mxGeometry relative="1" as="geometry" />
        </mxCell>
        <mxCell id="IJIaXHJ3QycAoCleeHPY-45" value="19" style="ellipse;whiteSpace=wrap;html=1;" vertex="1" parent="1">
          <mxGeometry x="185" y="2350" width="70" height="70" as="geometry" />
        </mxCell>
        <mxCell id="IJIaXHJ3QycAoCleeHPY-56" style="edgeStyle=orthogonalEdgeStyle;rounded=0;orthogonalLoop=1;jettySize=auto;html=1;exitX=1;exitY=0.5;exitDx=0;exitDy=0;entryX=0.5;entryY=0;entryDx=0;entryDy=0;" edge="1" parent="1" source="IJIaXHJ3QycAoCleeHPY-47" target="IJIaXHJ3QycAoCleeHPY-51">
          <mxGeometry relative="1" as="geometry" />
        </mxCell>
        <mxCell id="IJIaXHJ3QycAoCleeHPY-47" value="20" style="ellipse;whiteSpace=wrap;html=1;" vertex="1" parent="1">
          <mxGeometry x="510" y="2350" width="70" height="70" as="geometry" />
        </mxCell>
        <mxCell id="IJIaXHJ3QycAoCleeHPY-52" value="" style="edgeStyle=orthogonalEdgeStyle;rounded=0;orthogonalLoop=1;jettySize=auto;html=1;" edge="1" parent="1" source="IJIaXHJ3QycAoCleeHPY-49" target="IJIaXHJ3QycAoCleeHPY-51">
          <mxGeometry relative="1" as="geometry" />
        </mxCell>
        <mxCell id="IJIaXHJ3QycAoCleeHPY-49" value="21" style="ellipse;whiteSpace=wrap;html=1;" vertex="1" parent="1">
          <mxGeometry x="185" y="2500" width="70" height="70" as="geometry" />
        </mxCell>
        <mxCell id="IJIaXHJ3QycAoCleeHPY-51" value="22" style="ellipse;whiteSpace=wrap;html=1;" vertex="1" parent="1">
          <mxGeometry x="700" y="2500" width="70" height="70" as="geometry" />
        </mxCell>
        <mxCell id="IJIaXHJ3QycAoCleeHPY-53" value="" style="endArrow=none;html=1;rounded=0;entryX=1;entryY=1;entryDx=0;entryDy=0;exitX=1;exitY=0;exitDx=0;exitDy=0;" edge="1" parent="1" source="IJIaXHJ3QycAoCleeHPY-51" target="IJIaXHJ3QycAoCleeHPY-3">
          <mxGeometry width="50" height="50" relative="1" as="geometry">
            <mxPoint x="410" y="360" as="sourcePoint" />
            <mxPoint x="460" y="310" as="targetPoint" />
          </mxGeometry>
        </mxCell>
        <mxCell id="IJIaXHJ3QycAoCleeHPY-57" value="" style="endArrow=none;html=1;rounded=0;entryX=1;entryY=1;entryDx=0;entryDy=0;exitX=0.328;exitY=-0.006;exitDx=0;exitDy=0;exitPerimeter=0;" edge="1" parent="1" source="IJIaXHJ3QycAoCleeHPY-36" target="IJIaXHJ3QycAoCleeHPY-14">
          <mxGeometry width="50" height="50" relative="1" as="geometry">
            <mxPoint x="530" y="1600" as="sourcePoint" />
            <mxPoint x="120" y="700" as="targetPoint" />
          </mxGeometry>
        </mxCell>
        <mxCell id="IJIaXHJ3QycAoCleeHPY-58" value="" style="endArrow=none;html=1;rounded=0;entryX=0;entryY=1;entryDx=0;entryDy=0;exitX=0;exitY=0.5;exitDx=0;exitDy=0;" edge="1" parent="1" source="IJIaXHJ3QycAoCleeHPY-34" target="IJIaXHJ3QycAoCleeHPY-30">
          <mxGeometry width="50" height="50" relative="1" as="geometry">
            <mxPoint x="70" y="1620" as="sourcePoint" />
            <mxPoint x="120" y="1570" as="targetPoint" />
            <Array as="points">
              <mxPoint x="130" y="1660" />
            </Array>
          </mxGeometry>
        </mxCell>
        <mxCell id="IJIaXHJ3QycAoCleeHPY-59" value="" style="endArrow=none;html=1;rounded=0;exitX=0;exitY=0;exitDx=0;exitDy=0;entryX=0;entryY=0.5;entryDx=0;entryDy=0;" edge="1" parent="1" source="IJIaXHJ3QycAoCleeHPY-38" target="IJIaXHJ3QycAoCleeHPY-8">
          <mxGeometry width="50" height="50" relative="1" as="geometry">
            <mxPoint x="70" y="1870" as="sourcePoint" />
            <mxPoint x="120" y="1820" as="targetPoint" />
            <Array as="points">
              <mxPoint x="60" y="1110" />
            </Array>
          </mxGeometry>
        </mxCell>
        <mxCell id="IJIaXHJ3QycAoCleeHPY-60" value="" style="endArrow=none;html=1;rounded=0;entryX=0;entryY=0.5;entryDx=0;entryDy=0;exitX=0;exitY=0.5;exitDx=0;exitDy=0;" edge="1" parent="1" source="IJIaXHJ3QycAoCleeHPY-45" target="IJIaXHJ3QycAoCleeHPY-8">
          <mxGeometry width="50" height="50" relative="1" as="geometry">
            <mxPoint x="70" y="420" as="sourcePoint" />
            <mxPoint x="120" y="370" as="targetPoint" />
            <Array as="points">
              <mxPoint x="30" y="1360" />
              <mxPoint x="30" y="830" />
            </Array>
          </mxGeometry>
        </mxCell>
      </root>
    </mxGraphModel>
  </diagram>
</mxfile>
